<svg width="40" height="40" viewBox="0 0 40 40" fill="none" xmlns="http://www.w3.org/2000/svg">
<rect width="40" height="40" rx="12" fill="#E8EDF2"/>
<g clip-path="url(#clip0_1_23)">
<path fill-rule="evenodd" clip-rule="evenodd" d="M28.0406 26.5625C26.8508 24.5055 25.0172 23.0305 22.8773 22.3313C25.053 21.0361 26.0951 18.447 25.4235 16.0057C24.7518 13.5645 22.5319 11.8729 20 11.8729C17.4681 11.8729 15.2482 13.5645 14.5765 16.0057C13.9049 18.447 14.947 21.0361 17.1227 22.3313C14.9828 23.0297 13.1492 24.5047 11.9594 26.5625C11.8406 26.7562 11.8363 26.9991 11.9481 27.1969C12.0599 27.3947 12.2703 27.5162 12.4975 27.5142C12.7247 27.5123 12.933 27.3872 13.0414 27.1875C14.5133 24.6438 17.1148 23.125 20 23.125C22.8852 23.125 25.4867 24.6438 26.9586 27.1875C27.067 27.3872 27.2753 27.5123 27.5025 27.5142C27.7297 27.5162 27.9401 27.3947 28.0519 27.1969C28.1637 26.9991 28.1594 26.7562 28.0406 26.5625ZM15.625 17.5C15.625 15.0838 17.5838 13.125 20 13.125C22.4162 13.125 24.375 15.0838 24.375 17.5C24.375 19.9162 22.4162 21.875 20 21.875C17.5848 21.8724 15.6276 19.9152 15.625 17.5Z" fill="#0D171C"/>
</g>
<defs>
<clipPath id="clip0_1_23">
<rect width="20" height="20" fill="white" transform="translate(10 10)"/>
</clipPath>
</defs>
</svg>
